<?xml version="1.0" encoding="UTF-8" ?>
<!DOCTYPE svg PUBLIC "-//W3C//DTD SVG 1.1//EN" "http://www.w3.org/Graphics/SVG/1.1/DTD/svg11.dtd">
<svg width="220pt" height="148pt" viewBox="0 0 220 148" version="1.1" xmlns="http://www.w3.org/2000/svg">
<g id="#000000ff">
<path fill="#000000" opacity="1.00" d=" M 11.69 10.21 C 14.85 10.29 18.01 10.41 21.16 10.70 C 33.03 13.24 45.93 12.93 56.80 19.00 C 60.21 20.57 59.58 24.44 59.34 27.49 C 70.25 27.37 81.18 27.63 92.09 27.38 C 96.73 25.09 100.75 21.37 106.00 20.32 C 113.88 18.02 122.05 20.73 129.26 23.91 C 136.83 27.32 144.64 30.19 152.24 33.54 C 152.13 31.00 152.58 28.10 155.46 27.43 C 172.23 20.90 190.45 18.94 208.33 19.17 C 209.75 20.43 211.22 21.88 210.85 23.98 C 210.80 49.02 210.92 74.07 210.79 99.11 C 210.97 102.04 207.48 103.21 205.09 103.21 C 198.72 103.30 192.34 103.15 185.96 103.25 C 183.59 103.20 181.02 103.47 178.89 102.20 C 177.32 100.56 176.93 98.21 176.12 96.17 C 173.93 97.64 171.76 99.14 169.64 100.71 C 171.17 108.89 164.06 117.00 155.83 116.77 C 153.77 119.68 151.56 122.69 148.20 124.19 C 145.11 126.05 141.40 125.68 137.95 125.72 C 134.93 130.89 129.33 135.32 123.03 134.51 C 120.10 134.15 116.21 134.25 114.86 137.43 C 112.09 137.71 109.30 137.73 106.52 137.65 C 106.19 137.22 105.54 136.35 105.22 135.92 C 100.75 134.89 96.58 132.86 92.89 130.16 C 81.96 122.14 71.26 113.82 60.79 105.22 C 54.57 100.35 49.31 94.41 43.81 88.78 C 43.00 90.87 41.99 92.93 40.43 94.57 C 30.84 94.47 21.25 94.52 11.67 94.54 C 10.33 93.36 8.83 92.04 9.17 90.05 C 9.14 65.02 9.14 39.99 9.17 14.97 C 8.93 12.96 10.68 11.69 11.69 10.21 M 17.50 19.36 C 17.59 41.67 17.49 63.98 17.55 86.29 C 23.18 86.31 28.80 86.25 34.43 86.34 C 34.84 86.07 35.66 85.51 36.06 85.23 C 39.15 73.75 42.92 62.45 45.67 50.88 C 47.71 42.31 50.32 33.74 50.66 24.89 C 39.91 21.64 28.68 20.20 17.50 19.36 M 162.22 33.82 C 170.98 53.56 177.73 74.11 184.63 94.54 C 190.59 94.49 196.54 94.54 202.50 94.51 C 202.45 72.17 202.45 49.84 202.49 27.51 C 188.86 27.57 175.24 29.77 162.22 33.82 M 93.14 38.13 C 87.89 42.83 83.28 48.51 80.74 55.15 C 80.30 57.13 79.33 60.69 82.10 61.32 C 86.58 63.19 91.88 61.68 95.05 58.11 C 97.21 56.14 98.66 52.82 101.93 52.58 C 106.18 51.98 109.76 49.30 113.93 48.45 C 116.95 48.41 118.78 51.43 120.96 53.11 C 135.69 66.64 152.97 77.50 165.91 92.92 C 168.60 91.24 171.25 89.46 173.66 87.38 C 170.09 78.61 167.42 69.49 163.95 60.67 C 162.10 55.32 159.78 50.15 158.07 44.77 C 147.09 40.05 135.76 36.16 124.89 31.18 C 119.39 28.47 113.06 27.37 107.04 28.71 C 101.68 30.61 97.31 34.39 93.14 38.13 M 57.81 35.69 C 54.76 50.42 50.93 65.01 46.32 79.33 C 52.70 85.73 58.58 92.67 65.64 98.35 C 76.15 106.95 86.86 115.30 97.81 123.33 C 101.91 126.43 106.94 128.31 112.10 128.44 C 106.34 122.06 99.87 116.32 94.20 109.86 C 93.00 108.55 92.91 106.37 93.91 104.93 C 95.19 102.68 98.83 102.56 100.49 104.43 C 107.51 111.42 114.10 118.91 121.65 125.34 C 124.99 128.10 128.62 124.27 130.88 121.95 C 124.53 115.38 117.87 109.10 111.71 102.34 C 110.64 101.21 109.83 99.69 110.17 98.10 C 110.37 95.18 114.46 93.07 116.58 95.49 C 123.67 102.32 130.11 109.86 137.59 116.29 C 140.93 119.25 145.29 116.46 148.01 114.05 C 140.30 105.76 131.96 98.06 124.38 89.64 C 123.63 88.54 122.15 87.58 122.53 86.05 C 122.45 83.53 125.15 82.53 126.89 81.34 C 130.97 83.76 133.80 87.62 137.13 90.90 C 142.09 95.95 147.03 101.03 152.14 105.93 C 153.56 107.14 155.03 108.90 157.14 108.43 C 159.50 107.22 162.29 104.91 161.39 101.91 C 159.77 98.08 156.80 95.01 153.94 92.07 C 141.01 79.76 126.32 69.49 113.16 57.44 C 110.88 58.57 108.50 59.49 106.06 60.25 C 103.15 60.86 101.68 63.72 99.49 65.45 C 93.32 71.06 83.53 72.00 76.36 67.78 C 72.74 65.38 70.89 60.64 71.81 56.40 C 73.37 49.13 77.29 42.45 82.47 37.16 C 82.57 36.77 82.77 36.00 82.87 35.61 C 74.52 35.75 66.16 35.63 57.81 35.69 Z" />
</g>
</svg>
