<?xml version="1.0" encoding="UTF-8" ?>
<!DOCTYPE svg PUBLIC "-//W3C//DTD SVG 1.1//EN" "http://www.w3.org/Graphics/SVG/1.1/DTD/svg11.dtd">
<svg width="80pt" height="80pt" viewBox="0 0 80 80" version="1.1" xmlns="http://www.w3.org/2000/svg">
<g id="#ffffffff">
<path fill="#ffffff" opacity="1.00" d=" M 11.69 11.51 C 30.62 11.27 49.56 11.35 68.49 11.47 C 68.47 11.93 68.44 12.84 68.42 13.30 L 69.33 13.42 C 69.30 15.14 69.30 16.86 69.33 18.57 L 68.31 18.53 C 68.33 18.97 68.37 19.86 68.39 20.30 C 49.79 20.43 31.19 20.19 12.59 20.43 C 10.32 18.00 11.39 14.45 11.69 11.51 Z" />
<path fill="#ffffff" opacity="1.00" d=" M 11.71 36.53 C 11.55 33.74 10.08 29.56 12.91 27.79 C 30.63 27.61 48.37 27.74 66.09 27.73 C 67.62 27.44 68.49 28.79 69.38 29.73 C 69.25 31.84 69.42 33.99 68.98 36.07 C 66.78 36.97 64.37 36.66 62.06 36.72 C 45.28 36.57 28.48 36.93 11.71 36.53 Z" />
<path fill="#ffffff" opacity="1.00" d=" M 11.70 44.54 C 30.63 44.32 49.56 44.40 68.49 44.50 C 68.47 44.96 68.43 45.86 68.41 46.31 L 69.34 46.43 C 69.30 48.14 69.30 49.86 69.33 51.57 L 68.31 51.56 C 68.33 52.00 68.38 52.88 68.40 53.32 C 49.80 53.45 31.19 53.20 12.58 53.44 C 10.33 51.02 11.38 47.47 11.70 44.54 Z" />
<path fill="#ffffff" opacity="1.00" d=" M 11.48 68.42 C 11.48 65.93 10.29 62.30 12.93 60.80 C 30.65 60.63 48.38 60.75 66.11 60.74 C 67.55 60.55 68.51 61.79 69.37 62.73 C 69.29 64.51 69.27 66.31 69.21 68.10 C 68.45 68.78 67.73 69.51 67.04 70.26 C 49.01 70.34 30.97 70.28 12.93 70.29 C 12.57 69.82 11.84 68.89 11.48 68.42 Z" />
</g>
</svg>
