<?xml version="1.0" encoding="UTF-8" ?>
<!DOCTYPE svg PUBLIC "-//W3C//DTD SVG 1.1//EN" "http://www.w3.org/Graphics/SVG/1.1/DTD/svg11.dtd">
<svg width="100pt" height="100pt" viewBox="0 0 100 100" version="1.1" xmlns="http://www.w3.org/2000/svg">
<g id="#212020ff">
<path fill="#212020" opacity="1.00" d=" M 78.44 1.58 C 82.93 0.57 87.40 2.55 91.08 4.95 C 97.10 9.53 99.58 17.75 98.39 25.05 C 96.80 32.31 95.44 39.92 91.26 46.22 C 89.50 48.89 85.14 46.10 86.41 43.40 C 90.26 35.91 92.73 27.53 92.42 19.05 C 92.23 13.36 87.79 7.74 81.85 7.50 C 75.79 6.93 70.08 12.02 69.70 18.04 C 69.58 22.81 71.24 27.40 71.50 32.13 C 70.79 34.87 66.46 35.05 65.88 32.14 C 64.61 25.45 62.36 18.09 65.47 11.57 C 67.83 6.31 73.02 2.99 78.44 1.58 Z" />
<path fill="#212020" opacity="1.00" d=" M 45.50 17.51 C 50.60 16.18 56.03 17.27 61.25 17.12 C 61.21 20.12 61.61 23.08 61.94 26.04 C 61.91 28.39 60.18 30.60 61.02 33.00 C 61.94 37.54 67.40 40.52 71.65 38.47 C 76.28 36.72 78.17 30.07 74.56 26.45 C 72.17 24.29 72.49 20.84 72.35 17.92 C 74.84 18.30 77.38 18.52 79.82 19.19 C 81.27 20.39 81.25 22.39 81.52 24.09 C 82.52 32.36 83.35 40.68 83.37 49.02 C 83.23 51.02 83.56 53.43 82.01 54.99 C 68.67 68.33 55.29 81.63 41.94 94.97 C 39.08 98.84 33.10 98.52 30.39 94.65 C 21.90 86.12 13.37 77.65 4.85 69.16 C 3.36 67.39 1.18 65.61 1.40 63.07 C 1.98 60.74 3.83 59.04 5.39 57.33 C 18.82 44.12 32.00 30.64 45.50 17.51 M 51.76 46.08 C 49.95 45.13 48.14 44.05 46.06 43.82 C 41.44 43.27 36.77 47.29 36.85 51.99 C 37.10 56.00 39.58 59.34 40.62 63.12 C 41.38 65.14 39.21 67.83 37.06 66.95 C 33.14 65.37 31.00 61.33 29.65 57.56 C 27.84 58.55 26.08 59.64 24.39 60.82 C 25.66 63.44 27.17 65.96 29.15 68.11 C 28.00 69.26 26.85 70.42 25.71 71.60 C 26.84 72.75 27.97 73.90 29.10 75.06 C 30.33 73.79 31.57 72.54 32.81 71.29 C 35.19 72.84 38.00 74.16 40.93 73.63 C 44.93 72.91 48.56 69.22 48.36 65.01 C 48.28 60.68 45.19 57.19 44.53 52.99 C 44.30 51.01 46.66 49.68 48.30 50.62 C 51.48 52.19 52.99 55.58 54.67 58.50 C 56.21 57.45 57.79 56.46 59.40 55.52 C 58.35 53.17 56.92 51.04 55.26 49.08 C 56.36 48.09 57.42 47.06 58.53 46.08 C 57.35 44.92 56.17 43.75 55.00 42.58 C 53.92 43.76 52.83 44.91 51.76 46.08 Z" />
</g>
</svg>
