<?xml version="1.0" encoding="UTF-8" ?>
<!DOCTYPE svg PUBLIC "-//W3C//DTD SVG 1.1//EN" "http://www.w3.org/Graphics/SVG/1.1/DTD/svg11.dtd">
<svg width="1002pt" height="1005pt" viewBox="0 0 1002 1005" version="1.1" xmlns="http://www.w3.org/2000/svg">
<g id="#212020ff">
<path fill="#212020" opacity="1.00" d=" M 795.45 17.57 C 849.48 11.34 905.57 33.94 940.27 75.74 C 953.53 92.08 964.61 110.39 971.56 130.32 C 982.70 159.71 985.17 191.70 983.73 222.87 C 980.41 299.36 960.67 375.09 926.54 443.61 C 922.43 451.26 918.96 459.50 912.81 465.81 C 903.24 475.17 887.01 476.92 876.06 468.90 C 863.44 461.08 859.45 442.68 867.19 430.12 C 903.81 363.13 923.26 287.16 925.65 210.96 C 926.85 190.17 923.63 169.15 916.51 149.60 C 907.64 126.43 892.17 105.26 870.94 92.05 C 838.65 71.05 795.13 69.42 761.03 87.07 C 727.09 103.61 702.86 138.18 698.62 175.66 C 696.01 201.29 701.42 226.65 705.18 251.87 C 708.12 272.03 713.49 291.81 715.82 312.05 C 718.56 327.64 704.61 343.31 688.97 342.92 C 674.55 345.09 660.99 333.48 658.39 319.61 C 650.73 279.68 642.89 239.64 639.76 199.05 C 635.81 146.41 658.90 93.05 698.71 58.70 C 725.70 35.49 759.83 20.34 795.45 17.57 Z" />
<path fill="#212020" opacity="1.00" d=" M 462.59 172.66 C 488.54 168.86 514.87 170.21 541.00 169.99 C 565.63 170.45 590.28 170.96 614.85 172.82 C 610.11 203.49 617.31 234.17 621.41 264.48 C 623.44 270.58 619.33 275.70 616.78 280.75 C 604.32 305.81 607.20 337.57 624.09 359.94 C 643.63 388.11 683.28 400.03 715.03 387.06 C 742.59 376.77 763.43 349.54 764.83 319.97 C 767.39 294.94 755.92 269.26 736.16 253.86 C 733.52 251.62 730.39 249.21 730.78 245.16 C 727.74 223.90 723.29 202.57 724.57 180.98 C 739.44 182.20 754.24 184.08 769.04 185.97 C 778.18 187.22 787.36 188.70 796.01 192.05 C 805.62 195.66 810.91 205.92 812.45 215.59 C 815.50 231.61 817.03 247.86 818.92 264.05 C 825.55 321.39 830.50 378.93 833.48 436.58 C 834.15 463.52 836.24 490.54 833.46 517.43 C 832.16 528.83 831.93 542.39 822.76 550.75 C 685.24 688.24 547.76 825.76 410.24 963.25 C 393.98 979.46 369.47 985.66 347.25 980.60 C 335.33 977.42 324.35 971.09 315.73 962.28 C 222.78 869.22 129.74 776.26 36.74 683.25 C 17.92 663.78 13.61 632.02 26.11 608.06 C 32.81 594.77 44.56 585.23 54.75 574.75 C 184.22 445.22 313.81 315.81 443.21 186.21 C 449.00 180.95 453.75 172.71 462.59 172.66 M 516.97 462.41 C 494.98 448.04 468.77 436.95 441.96 440.75 C 414.30 443.93 389.68 462.53 377.01 486.98 C 368.64 503.04 367.88 522.07 371.51 539.55 C 376.70 570.81 395.66 597.17 404.85 627.09 C 408.15 639.62 409.30 655.28 398.88 664.88 C 390.43 674.44 376.15 674.44 365.13 669.88 C 351.39 663.94 340.49 653.29 331.02 641.97 C 315.19 623.36 304.53 601.04 296.89 577.99 C 279.60 588.01 262.59 598.49 245.23 608.39 C 254.52 636.75 271.50 661.99 291.25 684.12 C 279.95 695.67 268.49 707.07 256.96 718.38 C 268.43 730.00 279.96 741.56 291.63 752.99 C 303.76 740.59 316.20 728.48 328.29 716.04 C 349.47 730.69 374.67 741.81 400.96 739.79 C 419.64 739.34 437.36 731.33 451.68 719.66 C 465.91 707.13 478.04 691.10 482.46 672.38 C 486.10 655.72 483.64 638.24 478.86 622.06 C 470.85 594.82 454.82 570.64 447.95 543.02 C 445.35 532.78 444.95 520.17 453.30 512.32 C 465.24 501.06 484.17 505.83 495.64 515.36 C 518.73 533.60 534.13 559.71 544.06 587.08 C 560.94 577.95 577.04 567.45 594.07 558.58 C 585.75 534.26 570.55 513.05 553.61 494.00 C 563.96 483.35 574.65 473.03 584.99 462.37 C 573.55 451.22 562.45 439.72 550.96 428.63 C 539.55 439.81 528.40 451.25 516.97 462.41 Z" />
</g>
</svg>
