<?xml version="1.0" encoding="UTF-8" ?>
<!DOCTYPE svg PUBLIC "-//W3C//DTD SVG 1.1//EN" "http://www.w3.org/Graphics/SVG/1.1/DTD/svg11.dtd">
<svg width="80pt" height="80pt" viewBox="0 0 80 80" version="1.1" xmlns="http://www.w3.org/2000/svg">
<g id="#ffffffff">
<path fill="#ffffff" opacity="1.00" d=" M 11.31 17.86 C 13.76 15.20 16.12 12.31 19.31 10.49 C 20.33 10.26 21.23 10.51 21.99 11.23 C 28.79 16.66 33.95 23.90 40.93 29.09 C 45.93 24.03 50.99 19.05 55.98 13.99 C 57.30 12.62 58.83 11.45 60.49 10.50 C 62.18 9.98 63.38 11.50 64.57 12.40 C 66.78 14.40 68.93 16.51 70.64 18.96 C 71.28 21.21 69.28 22.55 67.97 24.01 C 62.82 29.21 57.56 34.29 52.48 39.55 C 51.91 40.98 53.17 42.02 54.03 42.96 C 59.27 48.26 64.67 53.41 69.78 58.83 C 70.84 63.86 66.18 66.56 63.27 69.75 C 61.80 69.77 60.33 69.78 58.86 69.75 C 52.94 63.63 46.84 57.70 40.86 51.65 C 34.17 57.18 28.40 63.77 22.21 69.85 C 17.37 70.86 14.50 66.49 11.65 63.38 C 11.31 61.81 11.28 60.15 11.60 58.57 C 16.55 53.20 21.91 48.20 27.04 42.99 C 27.92 42.04 29.73 40.55 28.37 39.21 C 23.21 33.80 17.67 28.76 12.60 23.27 C 10.95 21.93 11.55 19.70 11.31 17.86 Z" />
</g>
</svg>
