<?xml version="1.0" encoding="UTF-8" ?>
<!DOCTYPE svg PUBLIC "-//W3C//DTD SVG 1.1//EN" "http://www.w3.org/Graphics/SVG/1.1/DTD/svg11.dtd">
<svg width="202pt" height="146pt" viewBox="0 0 202 146" version="1.1" xmlns="http://www.w3.org/2000/svg">
<g id="#000000ff">
<path fill="#000000" opacity="1.00" d=" M 99.23 8.97 C 101.91 7.52 105.06 8.08 107.98 7.99 C 112.28 8.16 116.62 7.67 120.90 8.23 C 123.86 9.98 125.29 13.26 126.84 16.16 C 130.50 23.46 134.40 30.65 137.70 38.12 C 118.80 38.31 99.89 38.22 80.99 38.29 C 67.06 37.00 53.48 49.99 54.60 64.05 C 54.62 83.07 54.49 102.09 54.67 121.11 C 54.52 125.13 56.03 128.91 57.66 132.50 C 50.68 134.04 42.62 131.09 39.30 124.54 C 30.06 107.08 21.66 89.20 12.83 71.52 C 8.90 64.08 10.69 53.10 18.67 49.10 C 45.36 35.39 72.31 22.21 99.23 8.97 Z" />
<path fill="#000000" opacity="1.00" d=" M 64.57 65.05 C 63.57 56.55 71.73 48.66 80.03 48.66 C 102.69 48.15 125.37 48.43 148.03 48.36 C 157.71 48.42 167.41 48.11 177.07 48.83 C 184.05 49.18 189.57 55.45 190.95 61.96 C 191.09 82.98 190.92 104.02 191.03 125.04 C 191.37 130.30 187.76 134.76 184.02 138.03 C 149.33 137.96 114.64 138.02 79.95 138.00 C 77.06 137.93 74.13 138.28 71.27 137.74 C 67.76 134.91 64.28 130.81 64.57 126.03 C 64.62 105.71 64.63 85.38 64.57 65.05 M 74.34 66.81 C 110.35 66.85 146.36 66.83 182.37 66.81 C 182.25 64.14 181.69 60.73 178.95 59.54 C 173.99 58.90 168.97 58.74 163.97 58.79 C 135.96 58.84 107.95 58.75 79.94 58.83 C 76.06 59.24 74.46 63.38 74.34 66.81 M 74.81 82.90 C 74.06 96.60 74.82 110.31 74.80 124.01 C 74.47 127.40 77.58 130.79 81.00 130.53 C 112.68 130.54 144.37 130.44 176.05 130.25 C 179.41 130.52 182.45 127.38 182.24 124.06 C 182.24 110.25 182.22 96.44 182.24 82.63 C 146.43 82.71 110.61 82.38 74.81 82.90 Z" />
<path fill="#000000" opacity="1.00" d=" M 85.39 104.71 C 89.69 101.06 96.00 102.79 99.91 106.14 C 104.25 101.20 113.36 101.65 116.72 107.47 C 119.88 112.19 118.61 119.30 113.65 122.30 C 109.40 125.32 103.27 124.00 99.58 120.64 C 95.52 124.87 88.11 125.17 83.96 120.94 C 79.67 116.56 80.02 108.11 85.39 104.71 Z" />
</g>
</svg>
