<?xml version="1.0" encoding="UTF-8" ?>
<!DOCTYPE svg PUBLIC "-//W3C//DTD SVG 1.1//EN" "http://www.w3.org/Graphics/SVG/1.1/DTD/svg11.dtd">
<svg width="80pt" height="80pt" viewBox="0 0 80 80" version="1.1" xmlns="http://www.w3.org/2000/svg">
<g id="#ffffffff">
<path fill="#ffffff" opacity="1.00" d=" M 30.58 16.45 C 32.96 14.80 35.18 12.92 37.73 11.51 C 38.67 11.50 40.56 11.48 41.50 11.48 L 41.56 12.16 C 44.29 12.81 46.04 15.11 48.37 16.45 C 51.94 16.75 55.54 16.48 59.12 16.59 C 63.06 18.65 62.50 23.29 62.52 27.04 C 63.82 27.95 65.11 28.87 66.47 29.68 C 67.18 31.12 67.66 32.66 67.85 34.26 C 64.30 36.78 60.72 39.26 57.38 42.07 C 57.20 35.24 57.34 28.41 57.30 21.58 C 45.37 21.46 33.44 21.54 21.51 21.54 C 21.51 28.54 21.63 35.53 21.45 42.53 C 21.15 42.10 20.57 41.26 20.28 40.83 C 17.73 39.37 15.49 37.47 13.11 35.77 C 10.70 35.23 11.34 32.59 11.43 30.79 C 12.90 29.33 14.48 27.95 16.38 27.08 C 16.50 24.67 16.50 22.25 16.48 19.83 C 17.45 18.64 18.57 17.58 19.72 16.57 C 23.34 16.50 26.97 16.75 30.58 16.45 Z" />
<path fill="#ffffff" opacity="1.00" d=" M 28.70 30.57 C 31.07 29.91 33.54 29.52 35.97 30.11 C 38.32 30.27 40.69 30.33 43.00 29.83 C 45.40 30.27 47.87 30.10 50.27 30.60 C 50.25 31.84 50.23 33.07 50.21 34.30 C 43.10 34.99 35.88 34.72 28.74 34.43 C 28.72 33.14 28.71 31.86 28.70 30.57 Z" />
<path fill="#ffffff" opacity="1.00" d=" M 11.49 38.85 C 11.76 39.22 12.31 39.96 12.58 40.33 C 15.16 42.12 17.60 44.10 20.27 45.77 C 22.72 47.72 25.36 49.40 27.81 51.35 C 30.18 52.91 32.41 54.67 34.77 56.24 C 37.57 58.04 41.23 57.76 44.15 56.38 C 45.69 55.15 47.26 53.97 48.86 52.83 C 49.85 52.14 50.83 51.44 51.82 50.74 C 53.16 49.76 54.48 48.75 55.84 47.78 C 59.74 44.84 63.91 42.27 67.59 39.04 C 67.67 46.73 67.64 54.42 67.63 62.11 C 68.03 65.15 65.14 68.11 62.07 67.68 C 46.72 67.66 31.37 67.70 16.01 67.66 C 13.52 67.79 11.21 65.46 11.31 62.97 C 11.34 54.93 11.07 46.88 11.49 38.85 Z" />
<path fill="#ffffff" opacity="1.00" d=" M 29.73 40.58 C 36.32 40.26 42.94 40.50 49.54 40.48 C 49.75 42.13 49.78 43.78 49.62 45.44 C 42.97 45.61 36.30 45.51 29.64 45.50 C 28.86 44.03 27.89 41.71 29.73 40.58 Z" />
</g>
</svg>
