<?xml version="1.0" encoding="UTF-8" ?>
<!DOCTYPE svg PUBLIC "-//W3C//DTD SVG 1.1//EN" "http://www.w3.org/Graphics/SVG/1.1/DTD/svg11.dtd">
<svg width="80pt" height="80pt" viewBox="0 0 80 80" version="1.1" xmlns="http://www.w3.org/2000/svg">
<g id="#ffffffff">
<path fill="#ffffff" opacity="1.00" d=" M 29.21 15.06 C 33.48 13.58 36.29 8.90 40.74 8.02 C 44.37 10.05 47.29 13.17 51.01 15.05 C 54.31 15.34 57.66 14.82 60.94 15.35 C 64.61 16.84 62.89 21.53 63.52 24.55 C 67.03 27.40 70.87 29.81 74.40 32.64 C 70.09 35.90 65.70 39.06 61.35 42.28 C 61.38 34.84 61.41 27.39 61.36 19.94 C 61.62 18.51 60.80 16.82 59.12 17.05 C 47.08 16.92 35.03 17.05 22.98 16.99 C 21.51 17.00 18.84 16.77 19.17 19.02 C 19.03 26.77 19.19 34.53 19.10 42.28 C 14.78 39.03 10.35 35.91 6.09 32.58 C 9.67 29.90 13.40 27.42 16.85 24.58 C 17.86 21.67 15.71 17.04 19.37 15.46 C 22.56 14.66 25.94 15.42 29.21 15.06 Z" />
<path fill="#ffffff" opacity="1.00" d=" M 32.93 45.08 C 25.96 39.41 30.08 26.16 39.14 25.62 C 44.72 24.49 51.06 28.97 50.50 34.98 C 50.46 39.38 45.32 44.88 40.96 41.71 C 38.81 42.98 35.50 43.17 34.42 40.42 C 31.56 35.84 37.20 27.23 42.40 31.22 C 43.44 30.67 44.57 30.36 45.73 30.20 C 45.15 33.69 44.25 37.11 43.67 40.60 C 47.66 39.80 49.62 34.74 47.56 31.34 C 44.93 26.75 37.66 26.39 34.22 30.22 C 30.99 33.38 30.64 39.01 33.41 42.56 C 36.11 45.35 40.46 45.86 44.08 44.94 C 46.80 44.52 48.35 41.41 51.33 41.88 C 47.91 48.28 38.42 49.15 32.93 45.08 M 37.21 34.13 C 35.82 36.22 35.97 38.96 37.61 40.87 C 41.24 40.45 43.12 36.35 41.80 33.14 C 40.44 31.56 37.91 32.31 37.21 34.13 Z" />
<path fill="#ffffff" opacity="1.00" d=" M 5.36 33.98 C 13.36 40.09 21.34 46.22 29.22 52.49 C 21.11 58.15 13.36 64.30 5.34 70.10 C 5.41 58.06 5.37 46.02 5.36 33.98 Z" />
<path fill="#ffffff" opacity="1.00" d=" M 51.34 52.37 C 59.20 46.23 67.08 40.14 74.99 34.06 C 75.00 46.04 75.02 58.02 74.97 70.00 C 67.09 64.12 59.19 58.28 51.34 52.37 Z" />
<path fill="#ffffff" opacity="1.00" d=" M 6.00 71.77 C 14.17 65.58 22.38 59.44 30.66 53.41 C 33.67 55.72 36.45 58.40 39.79 60.25 C 43.74 59.34 46.53 55.67 49.86 53.44 C 58.18 59.47 66.42 65.62 74.58 71.86 C 57.06 72.18 39.53 71.91 22.01 72.00 C 16.67 71.90 11.32 72.24 6.00 71.77 Z" />
</g>
</svg>
