<?xml version="1.0" encoding="UTF-8" ?>
<!DOCTYPE svg PUBLIC "-//W3C//DTD SVG 1.1//EN" "http://www.w3.org/Graphics/SVG/1.1/DTD/svg11.dtd">
<svg width="80pt" height="80pt" viewBox="0 0 80 80" version="1.1" xmlns="http://www.w3.org/2000/svg">
<g id="#231f20ff">
<path fill="#231f20" opacity="1.00" d=" M 18.53 8.61 C 31.28 7.85 44.14 8.56 56.92 8.26 C 58.90 8.48 61.89 7.63 62.81 10.03 C 63.60 13.05 63.08 16.25 63.16 19.34 C 67.33 19.74 71.73 21.16 74.23 24.75 C 76.20 27.03 76.02 30.16 76.03 32.97 C 75.93 42.34 76.08 51.73 75.97 61.11 C 76.00 67.20 69.84 71.94 64.01 71.71 C 48.66 71.73 33.31 71.66 17.95 71.73 C 11.14 72.67 3.56 67.33 4.01 60.06 C 4.03 50.00 3.90 39.94 4.07 29.89 C 4.35 23.29 11.25 19.53 17.20 19.28 C 17.78 15.87 15.70 11.18 18.53 8.61 M 22.46 32.76 C 27.25 35.90 32.05 39.04 36.84 42.20 C 38.20 43.02 39.88 44.33 41.48 43.25 C 46.98 39.98 52.19 36.24 57.60 32.82 C 57.60 26.46 57.62 20.09 57.59 13.72 C 45.88 13.78 34.18 13.76 22.47 13.73 C 22.44 20.07 22.46 26.42 22.46 32.76 M 11.88 25.70 C 13.57 26.98 15.35 28.13 17.21 29.16 C 17.20 27.77 17.19 26.38 17.17 24.99 C 15.40 25.20 13.64 25.43 11.88 25.70 M 63.20 24.80 C 63.20 26.28 63.19 27.76 63.20 29.25 C 64.86 28.15 66.52 27.04 68.17 25.92 C 66.52 25.54 64.86 25.18 63.20 24.80 M 9.21 30.52 C 9.20 40.03 9.27 49.54 9.16 59.04 C 15.14 53.42 21.29 47.98 27.23 42.30 C 21.15 38.49 15.17 34.52 9.21 30.52 M 52.89 42.29 C 58.88 48.02 65.08 53.52 71.17 59.15 C 71.16 49.57 71.17 40.00 71.16 30.42 C 65.08 34.39 59.07 38.47 52.89 42.29 M 11.13 64.64 C 13.00 65.52 14.93 66.52 17.07 66.36 C 30.03 66.37 42.99 66.34 55.95 66.36 C 60.34 66.34 64.94 66.90 69.01 64.85 C 62.36 58.07 55.03 51.99 48.18 45.42 C 45.95 46.91 43.74 48.63 41.08 49.29 C 37.63 49.31 34.73 47.12 31.90 45.42 C 25.09 51.95 17.95 58.13 11.13 64.64 Z" />
<path fill="#231f20" opacity="1.00" d=" M 28.27 21.01 C 29.32 19.85 30.03 17.84 31.96 18.17 C 37.62 18.09 43.30 17.98 48.95 18.24 C 51.93 18.29 51.88 23.28 48.99 23.33 C 43.32 23.66 37.62 23.49 31.95 23.43 C 30.26 23.64 29.38 21.91 28.27 21.01 Z" />
<path fill="#231f20" opacity="1.00" d=" M 26.34 28.33 C 27.63 27.27 29.50 27.87 31.03 27.67 C 38.35 27.85 45.70 27.44 53.01 27.85 C 55.82 28.72 55.10 33.02 52.25 33.13 C 44.50 33.39 36.73 33.21 28.97 33.22 C 26.27 33.81 23.82 30.12 26.34 28.33 Z" />
</g>
</svg>
