<?xml version="1.0" encoding="UTF-8" ?>
<!DOCTYPE svg PUBLIC "-//W3C//DTD SVG 1.1//EN" "http://www.w3.org/Graphics/SVG/1.1/DTD/svg11.dtd">
<svg width="80pt" height="80pt" viewBox="0 0 80 80" version="1.1" xmlns="http://www.w3.org/2000/svg">
<g id="#fefefefe">
<path fill="#fefefe" opacity="1.00" d=" M 30.34 11.58 C 37.10 7.55 46.40 8.40 52.36 13.52 C 57.50 17.90 59.54 25.23 58.24 31.74 C 57.06 36.54 54.67 40.89 52.21 45.13 C 48.45 51.18 44.31 56.97 40.03 62.66 C 35.85 57.21 31.77 51.68 28.23 45.79 C 25.66 41.37 23.13 36.83 21.78 31.86 C 20.04 24.24 23.36 15.43 30.34 11.58 M 32.96 14.61 C 29.71 16.47 27.05 19.42 26.06 23.09 C 24.94 26.73 25.28 30.66 26.69 34.17 C 30.17 41.93 34.91 49.05 39.95 55.87 C 45.00 49.38 49.30 42.34 52.93 34.97 C 53.28 33.93 53.59 32.88 53.90 31.84 C 55.07 29.10 54.64 25.91 53.89 23.12 C 53.02 20.11 51.17 17.37 48.54 15.63 C 44.00 12.55 37.93 12.73 32.96 14.61 Z" />
<path fill="#fefefe" opacity="1.00" d=" M 33.93 24.28 C 35.83 21.10 39.89 20.99 43.13 21.61 C 45.00 22.89 46.35 24.69 47.37 26.69 C 48.32 31.56 44.12 36.83 38.96 35.72 C 33.54 35.56 30.63 28.41 33.93 24.28 M 37.64 25.74 C 36.47 27.50 36.45 29.58 37.71 31.30 C 38.27 31.46 39.39 31.79 39.95 31.95 C 40.57 31.75 41.81 31.34 42.43 31.13 C 42.99 29.76 43.28 28.32 43.32 26.84 C 41.66 25.53 39.67 24.87 37.64 25.74 Z" />
<path fill="#fefefe" opacity="1.00" d=" M 18.59 50.20 C 19.72 50.66 20.85 51.12 21.98 51.58 C 20.20 56.86 16.91 61.44 14.66 66.51 C 31.60 66.40 48.55 66.54 65.49 66.43 C 63.23 61.46 60.24 56.87 58.07 51.85 C 59.20 51.25 60.33 50.65 61.47 50.04 C 64.90 56.94 69.04 63.51 71.98 70.62 C 50.73 70.66 29.49 70.57 8.25 70.66 C 10.95 63.54 15.32 57.10 18.59 50.20 Z" />
</g>
</svg>
