<?xml version="1.0" encoding="UTF-8" ?>
<!DOCTYPE svg PUBLIC "-//W3C//DTD SVG 1.1//EN" "http://www.w3.org/Graphics/SVG/1.1/DTD/svg11.dtd">
<svg width="80pt" height="80pt" viewBox="0 0 80 80" version="1.1" xmlns="http://www.w3.org/2000/svg">
<g id="#000000ff">
<path fill="#000000" opacity="1.00" d=" M 33.62 8.83 C 39.05 7.34 45.33 7.59 50.06 10.92 C 54.51 13.81 57.45 18.75 58.13 23.99 C 58.93 30.11 56.41 36.30 52.23 40.73 C 47.70 45.52 43.32 50.56 40.62 56.65 C 40.24 56.72 39.47 56.87 39.09 56.95 C 37.62 54.45 36.53 51.72 34.77 49.39 C 30.83 43.81 24.93 39.57 22.47 33.01 C 18.84 23.68 24.16 12.10 33.62 8.83 M 37.85 16.68 C 34.23 17.44 31.08 20.39 30.34 24.05 C 29.26 28.51 31.88 33.26 36.04 35.03 C 41.75 37.68 48.99 33.22 49.41 27.01 C 50.19 20.87 43.90 15.19 37.85 16.68 Z" />
<path fill="#000000" opacity="1.00" d=" M 50.78 49.95 C 52.43 48.05 54.13 46.19 55.86 44.36 C 60.25 44.89 65.58 42.86 69.09 46.41 C 63.11 48.14 56.85 48.60 50.78 49.95 Z" />
<path fill="#000000" opacity="1.00" d=" M 14.50 44.41 C 17.76 44.36 21.03 44.39 24.29 44.30 C 26.76 47.45 30.70 49.82 31.91 53.73 C 25.66 51.61 20.35 47.39 14.50 44.41 Z" />
<path fill="#000000" opacity="1.00" d=" M 5.63 57.88 C 7.21 54.59 8.81 51.32 10.12 47.92 C 14.57 49.85 18.67 52.50 22.80 55.02 C 17.02 55.62 11.34 56.83 5.63 57.88 Z" />
<path fill="#000000" opacity="1.00" d=" M 47.32 54.45 C 54.90 52.55 62.73 51.79 70.37 50.16 C 73.60 56.85 76.17 63.88 80.00 70.27 L 80.00 71.77 C 74.12 71.99 68.14 72.38 62.30 71.69 C 55.72 68.32 49.43 64.39 43.01 60.72 C 44.35 58.57 45.40 56.15 47.32 54.45 Z" />
<path fill="#000000" opacity="1.00" d=" M 3.87 61.90 C 11.81 60.37 19.81 59.16 27.77 57.71 C 36.09 62.49 44.35 67.36 52.76 71.98 C 35.17 71.94 17.58 72.16 0.00 71.87 L 0.00 70.52 C 1.20 67.61 2.54 64.76 3.87 61.90 Z" />
</g>
</svg>
