<?xml version="1.0" encoding="UTF-8" ?>
<!DOCTYPE svg PUBLIC "-//W3C//DTD SVG 1.1//EN" "http://www.w3.org/Graphics/SVG/1.1/DTD/svg11.dtd">
<svg width="80pt" height="80pt" viewBox="0 0 80 80" version="1.1" xmlns="http://www.w3.org/2000/svg">
<g id="#ffffffff">
<path fill="#ffffff" opacity="1.00" d=" M 36.09 13.22 C 38.70 12.24 41.53 12.62 44.26 12.67 C 45.18 13.11 46.13 13.50 47.09 13.84 C 53.25 17.01 56.68 24.79 53.70 31.29 C 53.22 32.24 52.75 33.19 52.29 34.15 C 49.29 39.23 45.88 44.15 41.75 48.38 C 41.18 48.50 40.04 48.74 39.47 48.86 L 39.56 47.51 L 38.82 47.50 C 37.54 45.67 36.08 43.98 34.69 42.23 C 32.50 39.35 30.57 36.30 28.77 33.17 C 26.53 28.49 26.12 22.19 29.71 18.06 C 31.21 15.75 33.67 14.38 36.09 13.22 M 37.35 22.59 L 37.56 23.56 L 36.49 23.35 C 36.23 25.79 35.96 28.42 37.62 30.47 C 39.79 31.15 42.04 31.39 44.10 30.23 C 44.60 29.41 45.11 28.60 45.64 27.80 C 46.00 25.17 44.57 23.02 42.56 21.50 C 40.76 21.53 38.99 21.83 37.35 22.59 Z" />
<path fill="#ffffff" opacity="1.00" d=" M 69.90 30.48 C 70.77 30.40 71.63 30.34 72.49 30.28 C 72.96 40.16 72.62 50.07 72.70 59.97 C 72.85 63.05 69.16 63.59 66.98 64.52 C 65.71 65.06 64.43 65.59 63.13 66.06 C 61.35 66.66 59.61 67.39 58.02 68.40 C 57.70 68.35 57.06 68.25 56.73 68.21 C 56.50 68.79 56.04 69.96 55.81 70.54 C 54.80 66.78 55.41 62.86 55.27 59.02 C 55.39 51.67 55.00 44.30 55.48 36.96 C 57.15 36.42 58.75 35.69 60.46 35.26 L 60.66 34.65 C 63.88 33.63 66.93 32.08 69.90 30.48 Z" />
<path fill="#ffffff" opacity="1.00" d=" M 17.87 33.75 C 19.99 32.90 22.10 32.02 24.21 31.15 C 24.65 32.87 25.46 34.46 26.44 35.93 C 26.65 44.68 26.49 53.43 26.52 62.18 C 23.26 63.58 20.09 65.17 16.84 66.58 C 15.32 67.35 13.78 68.08 12.13 68.53 L 12.39 69.45 C 11.70 69.57 10.31 69.81 9.62 69.93 C 8.36 67.12 8.72 64.01 8.69 61.03 C 8.72 53.69 8.66 46.35 8.72 39.01 C 9.07 38.47 9.75 37.39 10.09 36.85 C 11.03 36.56 11.94 36.23 12.85 35.86 C 14.50 35.11 16.19 34.46 17.87 33.75 Z" />
<path fill="#ffffff" opacity="1.00" d=" M 30.21 62.12 C 30.53 55.49 30.09 48.84 30.48 42.22 C 32.40 45.33 34.52 48.34 37.04 51.00 C 39.44 53.57 44.14 52.80 45.74 49.71 C 46.86 48.17 48.15 46.78 49.32 45.28 C 49.95 44.15 50.69 43.09 51.43 42.03 C 51.62 51.41 51.60 60.79 51.44 70.17 C 50.60 69.54 49.80 68.87 49.04 68.15 C 48.80 68.21 48.32 68.33 48.07 68.39 C 47.05 67.89 46.00 67.44 44.94 67.04 C 40.04 65.37 35.08 63.88 30.21 62.12 Z" />
</g>
</svg>
