<?xml version="1.0" encoding="UTF-8" ?>
<!DOCTYPE svg PUBLIC "-//W3C//DTD SVG 1.1//EN" "http://www.w3.org/Graphics/SVG/1.1/DTD/svg11.dtd">
<svg width="100pt" height="100pt" viewBox="0 0 100 100" version="1.1" xmlns="http://www.w3.org/2000/svg">
<g id="#313131ff">
<path fill="#313131" opacity="1.00" d=" M 52.18 7.53 C 50.51 6.23 50.74 3.30 52.98 2.80 C 63.46 2.67 73.81 7.36 80.97 14.96 C 87.32 22.05 91.26 31.51 91.05 41.09 C 91.27 43.43 88.76 43.81 87.03 43.91 C 85.60 40.40 85.97 36.53 85.02 32.91 C 82.44 21.84 73.59 12.51 62.68 9.33 C 59.29 8.18 55.67 8.21 52.18 7.53 Z" />
<path fill="#313131" opacity="1.00" d=" M 52.33 14.33 C 67.21 12.71 81.02 27.25 79.73 42.03 C 79.28 44.31 75.22 44.45 75.13 41.92 C 74.49 38.34 74.38 34.57 72.61 31.30 C 69.17 24.29 61.86 19.50 54.07 19.11 C 51.29 19.60 49.49 15.52 52.33 14.33 Z" />
<path fill="#313131" opacity="1.00" d=" M 26.64 21.63 C 30.94 19.66 35.80 21.85 38.99 24.89 C 42.33 28.01 45.97 32.07 45.37 37.01 C 44.45 42.09 39.92 45.59 35.45 47.59 C 40.43 56.28 47.61 63.93 56.61 68.50 C 58.30 63.86 62.06 59.65 67.03 58.58 C 71.42 57.92 75.17 61.05 78.13 63.88 C 81.05 67.15 83.96 71.40 83.04 76.02 C 82.07 80.45 78.23 83.43 74.36 85.32 C 67.16 89.00 58.43 87.98 51.28 84.74 C 40.84 80.27 32.48 72.19 25.47 63.46 C 19.86 55.93 15.46 46.69 16.50 37.07 C 17.33 30.85 20.67 24.30 26.64 21.63 Z" />
<path fill="#313131" opacity="1.00" d=" M 52.33 23.46 C 62.23 22.48 71.68 32.00 70.40 41.92 C 70.01 43.79 67.14 44.59 66.14 42.78 C 65.09 39.81 65.24 36.38 63.27 33.76 C 60.79 29.99 56.19 28.41 51.86 28.18 C 50.87 26.80 50.14 24.12 52.33 23.46 Z" />
</g>
</svg>
