<?xml version="1.0" encoding="UTF-8" ?>
<!DOCTYPE svg PUBLIC "-//W3C//DTD SVG 1.1//EN" "http://www.w3.org/Graphics/SVG/1.1/DTD/svg11.dtd">
<svg width="152pt" height="146pt" viewBox="0 0 152 146" version="1.1" xmlns="http://www.w3.org/2000/svg">
<g id="#000000ff">
<path fill="#000000" opacity="1.00" d=" M 6.84 21.06 C 9.86 13.97 17.17 8.85 24.97 9.05 C 55.34 9.01 85.72 8.99 116.09 9.06 C 124.20 8.79 131.63 15.17 133.13 23.03 C 133.95 29.01 133.31 35.08 133.52 41.10 C 141.32 44.42 147.14 52.38 146.95 60.99 C 146.96 79.34 146.95 97.69 146.96 116.04 C 147.15 126.71 137.96 136.92 127.09 136.92 C 93.39 137.04 59.69 136.96 25.99 136.96 C 14.69 137.54 4.89 127.05 5.05 116.00 C 5.03 88.68 5.06 61.35 5.03 34.03 C 5.04 29.67 4.67 25.04 6.84 21.06 M 14.27 27.99 C 13.54 34.00 18.87 40.01 24.97 39.71 C 58.17 39.77 91.37 39.72 124.58 39.73 C 124.47 34.86 124.71 29.99 124.47 25.12 C 124.05 20.59 119.37 17.47 115.03 17.70 C 85.35 17.71 55.68 17.71 26.01 17.70 C 20.21 17.36 14.23 21.94 14.27 27.99 M 14.25 45.46 C 14.28 69.33 14.19 93.20 14.29 117.06 C 14.14 123.22 20.00 128.33 25.99 128.26 C 59.01 128.35 92.03 128.25 125.05 128.31 C 130.10 128.62 135.12 125.60 137.05 120.91 C 138.33 116.53 137.53 111.87 137.78 107.37 C 131.49 107.29 125.20 107.43 118.91 107.32 C 111.01 107.08 103.73 100.85 102.66 92.95 C 101.18 83.84 108.85 74.65 118.01 74.27 C 124.58 74.10 131.15 74.25 137.72 74.21 C 137.72 69.46 137.83 64.70 137.71 59.95 C 137.88 53.82 132.06 48.58 126.05 48.73 C 92.69 48.71 59.32 48.72 25.96 48.73 C 21.82 48.85 17.77 47.61 14.25 45.46 M 111.36 90.03 C 110.80 94.73 115.51 98.79 120.04 98.46 C 125.97 98.43 131.90 98.54 137.83 98.36 C 137.68 93.29 137.77 88.22 137.76 83.16 C 131.49 83.17 125.23 83.08 118.96 83.17 C 115.12 82.92 111.72 86.32 111.36 90.03 Z" />
<path fill="#000000" opacity="1.00" d=" M 22.96 24.45 C 53.91 24.46 84.85 24.43 115.80 24.46 C 115.77 27.39 115.75 30.31 115.74 33.24 C 84.82 33.24 53.89 33.25 22.96 33.23 C 22.95 30.30 22.95 27.38 22.96 24.45 Z" />
<path fill="#000000" opacity="1.00" d=" M 118.42 86.66 C 122.03 84.91 125.38 88.76 124.68 92.30 C 123.49 93.80 121.89 94.81 120.09 95.41 C 119.07 94.96 118.05 94.52 117.02 94.09 C 115.19 91.66 115.35 87.97 118.42 86.66 Z" />
</g>
</svg>
