<svg id="Layer_1" data-name="Layer 1" xmlns="http://www.w3.org/2000/svg" viewBox="0 0 60.94 65"><defs><style>.cls-1{fill:#333;}</style></defs><title>advant-icon-6-65</title><path class="cls-1" d="M5.58,0H6.7c4.64.75,9.31,1.31,14,1.94L21.34,0h1.09c4.81,4.32,12.17,1.91,17,6.16,2.87,2.39,6.34,3.78,9.79,5.08l.4,2.27c3.52,3.23,7.63,5.73,11.36,8.7v.07c-1.54,2.18-3.53,4-4.76,6.41-.71,1.89-.34,4-.42,6,.77.67,2.63.59,2.67,1.86A152.51,152.51,0,0,1,58.35,54l-2.63.26c-.3,3.55,1.18,7.81-1.49,10.73H1.34c.24-1.14-.21-1.59-1.34-1.36V22.15c1.27-1.89,3.31-3.43,3.42-5.88C4.2,10.85,4.81,5.42,5.58,0ZM8,3c-.84,7.34-2.28,14.6-2.77,22l1.29-1.4c1-4.85,1.31-9.81,2.12-14.69a6.49,6.49,0,0,0,5-3.75c2,0,4.73,1.58,6.14-.53C15.92,3.93,12,3.62,8,3Zm14.85.65c-2.83,7.15-6.4,14-8.72,21.34a5.77,5.77,0,0,0,2.4-2.85C18.4,17.9,20.11,13.6,22,9.38A6.42,6.42,0,0,0,27.8,7.12a40,40,0,0,0,5.9,2l-.87-1.33C29.67,6.05,26.19,5.07,22.89,3.66ZM11.15,11.34C10.54,15.88,9.77,20.41,9.43,25a4.52,4.52,0,0,0,2.44-2.51c2-4.68,3.94-9.38,6-14l-2.47-.26A26.86,26.86,0,0,1,11.15,11.34Zm13,13.45c1-.47,2.19-.76,2.83-1.76,2.59-3.25,5.12-6.54,7.71-9.79a6.55,6.55,0,0,0,6.22-.78c3.49,2.65,7.16,5.07,10.49,7.93-.08,1.25-.3,2.48-.46,3.72,1.45.27,2.89.56,4.34.88.59-.75,1.2-1.49,1.8-2.23-6.64-4.92-13.28-9.83-19.87-14.83C32.83,13.52,28.15,18.91,24.16,24.79Zm-.33-12.2c-2.1,3.72-3.37,7.84-5.19,11.7l2.18-.06c3.34-4.36,6.79-8.65,10.19-13l-2.3-.85C27.1,11.18,25.43,11.81,23.83,12.59Zm11.7,4.16c-2.07,2.54-4.11,5.11-6.09,7.73,6.29-.11,12.58-.05,18.87-.19-.06-1-.15-2-.3-3a73.12,73.12,0,0,0-7.1-5.38A37.56,37.56,0,0,1,35.53,16.75ZM2.85,27.15c.08,11.68.06,23.36,0,35.05,16.67.06,33.35,0,50,0,.07-2.69.07-5.36.08-8H39.07a57.34,57.34,0,0,1-4.19-5.83,20.44,20.44,0,0,1-10.68,8.2c.84-1.84,1.71-3.69,2.39-5.6a73.55,73.55,0,0,0-4.41,6.12c-1.71,2.42-4.82,3-7.42,3.93.73-1.17,1.5-2.32,2.26-3.46-1.7,1.17-3.35,3-5.63,2.75-2.6-.36-5.68-1.51-6.6-4.22C4.18,52,7.93,48.93,11.4,47.72s7.26-.46,10.88-.26C19.14,45.56,15.36,46,11.85,46c4.08-2.39,8.2-4.86,12.84-6-1-.4-1.92-.79-2.9-1.17a27.67,27.67,0,0,1,13.53-1.93c-1.18-.85-2.37-1.66-3.55-2.5,2.22.14,4.52,0,6.64.83C32.92,42.79,25.68,49.28,17,52.8c-3.38,1.43-7,1.89-10.56,2.64a16.68,16.68,0,0,0,5.77-.11c8.27-1.83,15.59-6.71,21.47-12.69,2.37-2.83,4.29-6,6.7-8.8C42,32,42.24,28.69,45,28.19a51.67,51.67,0,0,1-3.81,7.06c3.91,0,7.83,0,11.73,0,0-2.68,0-5.36,0-8C36.26,27.07,19.56,27.16,2.85,27.15ZM41.1,39c-1,2.81-1.87,5.74-3.64,8.21q1.5,2.16,3,4.28c5.06-.06,10.12-.05,15.17,0,0-4.53,0-9.06,0-13.59-4.25,0-8.51,0-12.76,0Z"/><path class="cls-1" d="M42.62,41.1c2.89-1.65,6.9,1.08,6.13,4.36a4.25,4.25,0,0,1-7,2.15C39.56,45.89,40.29,42.31,42.62,41.1Zm1.53,2.3a1.34,1.34,0,1,0,1,2.48C46.9,45.33,45.67,42.82,44.15,43.4Z"/></svg>