<svg id="Layer_1" data-name="Layer 1" xmlns="http://www.w3.org/2000/svg" viewBox="0 0 86.13 65"><defs><style>.cls-1{fill:#333;}</style></defs><title>advant-icon-3-65</title><path class="cls-1" d="M28.43,0h1.18C36,1.28,42.32,2.82,48.71,4.09,51.09,1.85,54.18-.32,57.63.67c3.53.57,5.45,3.85,6.63,6.89,5.76,1.52,11.6,2.66,17.37,4.12,1.72.26,2.71,1.75,3.75,3a7.6,7.6,0,0,1-5.19,2.48C81.65,28,83,38.87,84.29,49.74a19.81,19.81,0,0,0,1.84,6.48v.36c-2.07,4.85-7,7.77-12.07,8.42H71c-8.29-.22-17.1-6.78-16.5-15.72,3.31-2.39,5.09-6.14,7.29-9.45C67,31.89,72.09,23.93,77.28,16c-4.68-1.09-9.37-2.08-14-3.25-2.77,2.73-6.92,5.12-10.78,3-3-1-3.53-4.49-5.56-6.44-4.39-1.49-9.06-1.95-13.54-3.18C34.47,16,35.87,25.81,37,35.68c.42,3.47.59,7.09,2.33,10.21-3.47,8.45-14.54,10.43-22.2,6.92-5.49-2.39-9.93-7.78-9.52-14,3.4-2.51,5.25-6.38,7.54-9.8,5-7.7,10-15.47,15.07-23.12a29.89,29.89,0,0,1-2.7-1.91C26.59,2.51,27.92,1.28,28.43,0Zm-16,38.39Q23.8,40.81,35.1,43.51c-1.27-11.57-2.54-23.14-3.92-34.7C24.81,18.6,18.73,28.58,12.41,38.39ZM59.33,48.88c7.49,1.8,15,3.48,22.54,5.1-1.1-11.55-2.46-23.08-3.8-34.62C71.7,29.12,65.59,39.05,59.33,48.88Z"/><path class="cls-1" d="M21.26,8.2a3.4,3.4,0,0,1,4.25,0,86.69,86.69,0,0,0-8,8.51C13.87,21.34,11.36,26.68,9,32A58.89,58.89,0,0,0,0,20.13V18.74c2.94-.23,5.66.87,8.2,2.25C12.22,16.41,16.19,11.64,21.26,8.2Z"/></svg>