<svg id="Layer_1" data-name="Layer 1" xmlns="http://www.w3.org/2000/svg" viewBox="0 0 54.44 65"><defs><style>.cls-1{fill:#333;}</style></defs><title>advant-icon-2-65</title><path class="cls-1" d="M26.91,0h.39A70.79,70.79,0,0,0,44.86,6.91c-1.72,1.72-3,3.89-5.06,5.25-4.16-.79-7.88-2.9-11.74-4.51-1.17-.62-2.32.39-3.38.78A61.55,61.55,0,0,1,6.31,14c-.13,7-.09,14.05,2,20.76a38.68,38.68,0,0,0,19,23.17c6.82-4,12.79-9.61,16.22-16.82C47,34.45,48.09,26.84,48.14,19.4Q37.76,31.12,27.41,42.86c-4.72-4.49-9.27-9.13-13.94-13.67,1.5-1.54,3-3.12,4.37-4.73,3.07,3,6.17,6,9.15,9.1C34.77,25,42.27,16.19,50.07,7.64c1.46.15,2.91.3,4.37.43V20.8c-.09,11-3.12,22.23-10.07,30.91A42.82,42.82,0,0,1,27.26,65H27.1A44.89,44.89,0,0,1,2,35.66,62,62,0,0,1,0,23.11V8.05A58.54,58.54,0,0,0,26.91,0Z"/></svg>