<svg id="Layer_1" data-name="Layer 1" xmlns="http://www.w3.org/2000/svg" viewBox="0 0 61.75 65"><defs><style>.cls-1{fill:#333;}</style></defs><title>advant-icon-5-65</title><path class="cls-1" d="M29,0h3.69A31.33,31.33,0,0,1,56.14,13a31.2,31.2,0,0,1,5.53,19.48q-3.21-1.25-6.49-2.24A24.15,24.15,0,0,0,41.53,8.83C31.94,4,19.3,6.52,12.39,14.77A23.79,23.79,0,0,0,8.9,40.63,24.93,24.93,0,0,0,24.17,53.4c0,2.22,0,4.46,0,6.68-6.47-1.81-12.71-5.07-17-10.35A30.48,30.48,0,0,1,0,31.4V28.9A30.92,30.92,0,0,1,4,15.41,31.23,31.23,0,0,1,29,0Z"/><path class="cls-1" d="M30.34,10.82a2,2,0,0,1,2.49,1.67c.9,5.3,1.38,10.65,2.16,16,.39,2,.23,4.58-2,5.41-5.43,2.6-11.07,4.74-16.64,7-1.89,1.19-4.12-1.82-2.37-3.21,3.84-3.28,8.08-6,12-9.16,1-.62.84-1.87,1.05-2.84.53-4.2.93-8.42,1.57-12.61A2.46,2.46,0,0,1,30.34,10.82Z"/><path class="cls-1" d="M50,32.8c4-.54,9.12-.32,11.72,3.34v1.14c-2.14,3.59-6.76,4-10.52,3.76-2.7-.24-5.84-1.15-7.14-3.76C44.15,34.3,47.63,33.27,50,32.8Z"/><path class="cls-1" d="M43.74,40.12c4.91,4.23,13.23,4.64,18,0v2.52c-3.13,4.83-10.38,4.7-15.12,2.55C44.44,44.46,44,42.11,43.74,40.12Z"/><path class="cls-1" d="M29,46.91c4.94-2.22,11.79-2,15.42,2.48a6.25,6.25,0,0,1-4.61,4.15c-4.14,1-9.24,1-12.57-2C25.33,49.94,27.21,47.58,29,46.91Z"/><path class="cls-1" d="M48.88,48.38c4.41.6,9.64.78,12.87-2.86v2.64c-2.8,4.4-8.9,4.16-13.4,3.21a5.68,5.68,0,0,1-4.51-5.81C45.46,46.58,46.93,48,48.88,48.38Z"/><path class="cls-1" d="M49.09,53.86c4.36.74,9.42.55,12.66-2.89v2.55a7,7,0,0,1-4.15,3.2c-4.45,1.24-9.9,1-13.29-2.49-.44,1.47-.91,3.17-2.46,3.85a15.11,15.11,0,0,1-13.08.06c-2-.86-2.3-3.14-2.78-5,2.42,1.69,5.09,3.34,8.17,3.22,3.92.26,9.36-.54,10.26-5.17C45.83,52.3,47.26,53.56,49.09,53.86Z"/><path class="cls-1" d="M44.33,56.59c4.63,4.33,12.8,4.15,17.42-.11V59A7,7,0,0,1,57,62.33c-4.27,1-9.5.79-12.63-2.7-.49,4-4.7,5.16-8.12,5.37H33.44c-2-.47-4.3-.82-5.9-2.3-1.13-1-1-2.75-1.46-4.11,3.83,3.49,9.34,3.69,14.15,2.57A5.55,5.55,0,0,0,44.33,56.59Z"/></svg>