<svg id="Layer_1" data-name="Layer 1" xmlns="http://www.w3.org/2000/svg" viewBox="0 0 78.3 65"><defs><style>.cls-1{fill:#333;}</style></defs><title>advant-icon-4-65</title><path class="cls-1" d="M10.11,7.64Q32.81,3.88,55.51.17c2.86-.66,6.34.66,7.09,3.71C63.85,9.73,65,15.61,66,21.5c-2.32,0-4.63,0-6.94,0-.39-1.77-.73-3.56-1-5.35-14.6,2.3-29.17,4.78-43.76,7.16.12,1,.22,1.93.33,2.89-2.19.61-4.36,1.31-6.5,2.06-.77-4.93-1.93-9.8-2.66-14.73C4.91,10.7,7.37,8.06,10.11,7.64Zm2.38,6.11c.15,1.11.31,2.21.47,3.31,14.58-2.49,29.2-4.83,43.8-7.23-.1-.81-.29-2.4-.39-3.21C41.72,8.87,27.14,11.59,12.49,13.75Z"/><path class="cls-1" d="M23,25.86a55,55,0,0,1,5.58-.37q19.17,0,38.33,0a42,42,0,0,1,7.27.26c2,.42,3.27,2.19,4.14,3.91V57c-.68,2.55-2.94,4.7-5.69,4.49-12.25.06-24.51,0-36.76.05a22.09,22.09,0,0,0,5.68-16.28h6c-.05-1.35-.09-2.71-.13-4.05-2.22.05-4.45.07-6.68.09A22.61,22.61,0,0,0,32.8,30.58C29.89,28.31,26.3,27.32,23,25.86ZM51,41.27c0,1.28-.12,2.56-.17,3.84,2.85.2,5.72.07,8.57.14,0-1.33,0-2.66,0-4Zm12,0c0,1.32,0,2.65,0,4,2.86,0,5.72,0,8.58,0,0-1.32,0-2.65,0-4Zm-3.2,9.48c-2.4,1.56-1.41,5.51,1.36,5.91,2.79,0,5.74.42,8.47-.26,3.18-1.19,2.21-6.34-1.17-6.29C65.64,50.25,62.44,49.34,59.84,50.75Z"/><path class="cls-1" d="M7.53,33.33a20.23,20.23,0,0,1,16.38-2.87q-1.2,1.92-2.44,3.81C14.12,32.93,5.82,37.81,4.7,45.45c-1.43,7.74,5.58,15,13.15,15.22,8.22.86,16.4-6.71,15-15.13,1.22-1.39,2.51-2.71,3.85-4,.89,4.23,1.28,8.88-.73,12.87C33.26,60.66,26.68,64.54,20,65H17.65C9,64.61.86,57.73,0,48.9V46.13A17.87,17.87,0,0,1,7.53,33.33Z"/><path class="cls-1" d="M29.43,31.54c1.69,1.17,3.42,2.3,5.15,3.41-4.76,7-9.44,14.1-14.16,21.17C17,53.39,13.51,50.7,10.08,48c1.3-1.4,2.55-2.83,3.76-4.33,1.89,1.45,3.81,2.87,5.74,4.24C22.81,42.4,26.21,37,29.43,31.54Z"/></svg>