<svg id="Layer_1" data-name="Layer 1" xmlns="http://www.w3.org/2000/svg" viewBox="0 0 56.77 65"><defs><style>.cls-1{fill:#333;}</style></defs><title>advant-icon-1-65</title><path class="cls-1" d="M25.62.33A9.08,9.08,0,0,1,34,2.38a12.8,12.8,0,0,1,3.66,7.94A12.3,12.3,0,0,1,31.3,22.47,8.92,8.92,0,0,1,21,20.37c-4.3-4.61-4.19-12.43,0-17.08A10,10,0,0,1,25.62.33Z"/><path class="cls-1" d="M14.44,23.76c1.5-.63,2.83-1.6,4.35-2.19,1.09-.29,1.78.86,2.49,1.47a9,9,0,0,0,11.4.8c.88-.56,1.74-1.79,2.92-1.26,2.78,1.26,5.48,2.73,8.23,4.07,1.92,1,4,1.77,5.6,3.29a14.2,14.2,0,0,1,3.27,5.52,75.11,75.11,0,0,1,2.64,8.94c1.32,6,1.12,12.21,1.42,18.33,0,.75.24,2-.82,2.16-2.61.14-5.25,0-7.87.06-.24-2.92-.3-5.85-.52-8.77a.87.87,0,0,0-1.35-.74c-.92,3.13-1.53,6.34-2.34,9.5-9.84,0-19.67,0-29.51,0a52.27,52.27,0,0,0,4.3-3.55c2.84-2.7,5-6,7.54-8.94,1.09-1.36,2.56-2.32,3.7-3.64-.39-.41-.65-1.38-1.39-1.1-2,1-3.24,2.86-4.64,4.47-3.13,3.63-5.91,7.7-10,10.36-2.42,1.62-5.43,3.12-8.4,2.2C2.76,63.24,1.76,60,1,57.2-.81,49,.09,40.51,1.64,32.35a5.85,5.85,0,0,1,2.7-3.93C7.41,26.28,11.11,25.41,14.44,23.76ZM32.7,31.89c-1.53,1.72-2.77,3.7-4.19,5.52a5.94,5.94,0,0,0-1.32,5.06c.62,2.51,3.2,4.77,5.9,4a77.58,77.58,0,0,0,8.69-3.36L42.2,42c-.08-.28-.25-.85-.34-1.13a15.75,15.75,0,0,0,1.23-1.35,11.41,11.41,0,0,0-.35-1.74c.13-.59.53-1.21.24-1.82-.24-.77-1.09-.95-1.72-1.26-.45-.65-.86-1.67-1.83-1.52a31.47,31.47,0,0,0-4.65,1.67c.13-.94.59-2,0-2.88A1.3,1.3,0,0,0,32.7,31.89Zm-9.44,10a48.38,48.38,0,0,1-12.09,7.75A1,1,0,0,0,10.33,51c4.78-1.47,8.86-4.55,12.77-7.57.74-.66,1.91-1.17,1.79-2.36A4.23,4.23,0,0,0,23.26,41.9Z"/><path class="cls-1" d="M46.21,62a27,27,0,0,1,.29,3h-1C45.72,64,46,63,46.21,62Z"/></svg>