<svg id="Layer_1" data-name="Layer 1" xmlns="http://www.w3.org/2000/svg" viewBox="0 0 95.05 65"><defs><style>.cls-1{fill:#333;}</style></defs><title>advant-icon-8-65</title><path class="cls-1" d="M17,0h.44c2.75,1.75,6,3,8.12,5.57-.3,1.17-.73,2.29-1.12,3.42,3.34,2.32,7.32,3.2,11.3,3.66A12.12,12.12,0,0,1,41.25,10c6.46-1.07,13.2-1.36,19.59.34a24.14,24.14,0,0,0,8.51.66c4.22,7.64,8.24,15.39,12.43,23-1.61,1.39-3.21,2.82-4.79,4.26.73,2.18,1.86,4.62.59,6.83-.9,2.25-3.41,2.78-5.44,3.52-.9,1.94-1.8,4.18-4.09,4.79-2.61.52-2.89,3.48-4.63,5a22.32,22.32,0,0,1-3.9,1.3c-2.21,1.89-4.44,4.33-7.5,4.62a63.22,63.22,0,0,1-10.79-3.07C40.08,62.56,39,63.84,37.72,65h-1.3a5.85,5.85,0,0,1-3.06-6.14c-1.39.79-3.06,2.2-4.67,1-1.94-.85-2-3.13-2.19-4.91-1.59.4-3.51,1.22-4.74-.35-1.81-1.35-1.11-3.7-1-5.58-1.49-.15-3.31,0-4.2-1.48-1.68-1.77-.67-4.2.12-6.1a24.11,24.11,0,0,0-5.64-7.71,36.83,36.83,0,0,1-2.52,3.33C5.38,36,2.82,33.55,0,31.76,5.43,21.06,11.23,10.54,17,0ZM12.43,30.85a21,21,0,0,1,6.26,7.95c1.47-.79,3.38-1.92,4.91-.59,1.68,1,1.75,3.14,1.94,4.89,2-2,3.47-6.19,6.9-5.46,2.71.92,3.5,4.31,2.05,6.67,1.95-.35,4.34,0,5.06,2.13,1.07,1.81-.1,3.67-1,5.19,1.39,0,3.09-.56,4.2.6,2.13,1.53,1.48,4.43.66,6.48,4.06,1.23,9.4,3.85,12.82,0-3.26-2.1-7.18-3.21-10.08-5.82l.76-2.26c4.34,1.45,8.08,4.24,12.44,5.61,1.86.59,3.23-1,3.8-2.6-4.35-3.12-9.37-5.32-13.29-9,.71-.59,1.58-2.06,2.67-1.15C57,45.78,61.1,49,65.87,50.88c2,.15,2.88-2,3.23-3.59-4.65-3-9.54-5.69-14-9-1.45-.88-.3-2.27.64-3,5.25,3.18,10.37,6.6,15.76,9.54,2.66,1.48,5.14-2.84,2.62-4.43a135.81,135.81,0,0,0-25.09-18c-2.09-1-4.5-2.65-6.86-1.9-2.28,2.27-4.12,5.18-7.3,6.32-1.88.72-4.94,1.56-6.1-.69.29-4.11,3.55-7,5.12-10.66a20.84,20.84,0,0,1-11.19-3.8Q17.55,21.24,12.43,30.85Z"/><path class="cls-1" d="M77.36,0H78c4,6.94,7.55,14.1,11.38,21.13,1.89,3.34,3.36,7,5.7,10V32.2a88.77,88.77,0,0,0-8.42,5.17A55.35,55.35,0,0,1,83,31.5c-4.6-8.7-9.31-17.34-13.87-26.06A81.6,81.6,0,0,1,77.36,0Z"/></svg>