<svg id="Layer_1" data-name="Layer 1" xmlns="http://www.w3.org/2000/svg" viewBox="0 0 56.88 65"><defs><style>.cls-1{fill:#333;}</style></defs><title>advant-icon-7-65</title><path class="cls-1" d="M27.32,0h2.22C36.76,1.39,44,2.67,51.2,4.1c-6.43,2-13.06,3.22-19.56,5-3.24,1-6.54,0-9.69-.82C16.62,6.8,11.16,5.78,5.89,4.09,13,2.64,20.19,1.43,27.32,0Z"/><path class="cls-1" d="M43.93,20.6c1.32-4.8.7-9.9,1.85-14.69.65,4.91.28,10,1.66,14.78Z"/><path class="cls-1" d="M16.83,7.76C21.88,8.7,27,11.85,32.13,10c2.66-.72,5.33-1.4,8-2.1-.36,2.22.37,5.28-1.89,6.67a18,18,0,0,1-19.07.29C16.62,13.48,17.33,10.16,16.83,7.76Z"/><path class="cls-1" d="M17.56,15c3.85,2.12,8.13,3.94,12.63,3.41,3.33-.22,6.36-1.78,9.18-3.43.23,2.85.39,5.9-1.16,8.44-3.23,5.92-12.28,7.4-17.16,2.67C17.71,23.49,17,19,17.56,15Z"/><path class="cls-1" d="M25.83,31.57c0-2.16,2.69-1.94,4.17-1.63,2.61.83-.52,2.62-.55,4.21.35,1.68,1.21,3.19,1.7,4.83a22,22,0,0,1-2.67,5.76c-1-1.88-1.94-3.81-2.81-5.76.8-1.8,1.56-3.61,2.2-5.47C27.16,32.88,26.49,32.24,25.83,31.57Z"/><path class="cls-1" d="M17.27,32.75c1.26-.53,3.21-1.1,3.93.53,2.71,4.17,4.39,8.93,7.29,13,3.12-4.14,4.76-9.16,7.72-13.38.82-1.23,2.4-.74,3.49-.26a16.32,16.32,0,0,1,9.58,13.82,211.37,211.37,0,0,1-41.48,0A16.25,16.25,0,0,1,17.27,32.75Z"/><path class="cls-1" d="M0,53.46c.4-2.33,1.18-5.62,4.08-5.84,6.56-.13,13.1.91,19.66,1.15.81,2.47,1.67,5.09,1.11,7.72C21,57.35,17,57.3,13,57.76c-2.7.2-5.43.76-8.15.45C2.06,57.35,3.23,54.06,3.37,52c1,1.31,2,2.62,3,3.91.55-1.44,2-2.93,1.16-4.57C7,49.84,4.88,48.51,3.62,49.9.4,52.19.8,59,5.26,59.47c6.57.05,13.08-1.29,19.66-1.34-1.12.95-2.08,2.44-3.76,2.18-4.35.33-8.75-.37-13,.57a13.54,13.54,0,0,1-5.42-.21C1.32,59.86.83,58.23,0,57Z"/><path class="cls-1" d="M34.66,48.67c6.05-.25,12.06-1.11,18.1-1.09,2.56,0,3.46,2.79,4.12,4.79v3.15c-.21,1.13-.42,2.25-.64,3.37-7.08-.76-14.25-1-21.28-2.16a23.73,23.73,0,0,1,.12-5.52l-1.23-.27a41.2,41.2,0,0,1-.33,8.74c-2.76.07-5.51.08-8.28.13A21.29,21.29,0,0,0,25,48.69c2.57.17,5.4-.49,7.82.55l.68,1.66C33.9,50.16,34.28,49.42,34.66,48.67Z"/><path class="cls-1" d="M33.86,60.08,35,58.49c3.55-.33,7.08.45,10.63.63,3.22.36,6.63.09,9.66,1.42-3.5,1.06-7.12.33-10.67.07S37.44,60.39,33.86,60.08Z"/><path class="cls-1" d="M25.24,60.65c2.71.86,7.41-1.32,8.63,2.12-.48,1.17-2.21-.07-3.13-.07-1.48-.45-2.24,1.18-2.61,2.3h-.29A25.15,25.15,0,0,0,25.24,60.65Z"/></svg>