<svg id="Layer_1" data-name="Layer 1" xmlns="http://www.w3.org/2000/svg" viewBox="0 0 100 80"><defs><style>.cls-1{fill:#333;}</style></defs><title>labor-icon-2-80</title><path class="cls-1" d="M29.29,0h2.4c8.43.25,16.67,5.65,19.69,13.61l-5.22.07c-.17,1.84-.35,3.68-.51,5.52C44,11.89,36.63,6.38,29.12,7.47c-6.42.72-12.2,6.05-13,12.54a70.59,70.59,0,0,0-.28,9.31q9.3.06,18.59,0c.24,3,.36,6.35,2.7,8.55,2.18,2.43,5.62,2.66,8.62,3.2C51,47.55,56.46,53.83,61.43,60.48c.78,3.72.27,7.68.2,11.49-.38,4.16-4.12,7.25-8.06,8H7.73c-2.94-1.09-5.92-3-7-6.1A38.17,38.17,0,0,1,0,66.58V43.45c.3-3.7-.3-8,2.53-10.92C4,30.64,6.39,30,8.53,29.16c.16-4.61-.32-9.35,1.14-13.81A22.79,22.79,0,0,1,29.29,0Zm-.82,41.55c-3.45,1.3-5.21,6-3.2,9.13,2.68,5,0,11,1.76,16.25,1.84,3.21,7,2.67,8.21-.78C36.48,60.78,34.1,54.84,37,49.84,39.43,44.92,33.36,39.25,28.47,41.55Z"/><path class="cls-1" d="M48.1,14.76c8.76.8,17.57,1.25,26.26,2.67Q87.07,33.06,100,48.5v0c-9,7.61-18.1,15-27.09,22.62C64,61,55.75,50.34,47,40.08A34.18,34.18,0,0,0,61.31,27.4a5.79,5.79,0,0,0,.47-4.25c-.84-3-5.25-4.24-7.34-1.75C52.68,22.74,52.8,25,52.92,27a22.55,22.55,0,0,1-5.8,4.81C47.49,26.14,47.66,20.44,48.1,14.76Z"/><path class="cls-1" d="M36.27,33.81c-1-5.88,3.62-10.88,8.28-13.74.18,3.3.2,6.88-2.63,9.2,1.31,0,2.63,0,3.94,0A5.11,5.11,0,0,1,44,33.11c-1.11-1.26-2.18-2.56-3.27-3.83-.4,2.24.37,5.33,3.19,5.16,4.53-.58,7.75-4.22,10.62-7.44-.23-1.58-.83-3.4.69-4.58,2.33-2.94,7.48,1,5.18,4-3.4,4.82-7.26,9.93-13,12.11C43.36,40.09,37.4,38.53,36.27,33.81Z"/></svg>