<svg id="Layer_1" data-name="Layer 1" xmlns="http://www.w3.org/2000/svg" viewBox="0 0 65.04 80"><defs><style>.cls-1{fill:#333;}</style></defs><title>labor-icon-3-80</title><path class="cls-1" d="M32,0h1.15c1.39,1.31,2.69,2.69,4,4.07-.76.64-1.53,1.27-2.32,1.89a32,32,0,0,0-2.68-1.79C28.31,7,25.21,11.93,19.7,11A156.42,156.42,0,0,1,32,0Z"/><path class="cls-1" d="M31.87,10.81c3.35-3,6.49-6.28,10.25-8.69l1.47.23c2.75,2.54,5,5.56,7.64,8.22a14.24,14.24,0,0,1-4.17.15c-1.94-1.14-3.12-3.17-4.58-4.82-1.83,1.34-3.39,3-5.16,4.42C35.65,11.15,33.67,10.68,31.87,10.81Z"/><path class="cls-1" d="M12.05,14.25C13.15,12,16,12.51,18,12.37c13.3.15,26.6-.13,39.9.13,5.41.66,2.93,7.78,3.38,11.47A20.83,20.83,0,0,1,65,27.06V38.8a9.45,9.45,0,0,1-3.74,3.35A67,67,0,0,1,61.13,51a2.85,2.85,0,0,1-2.46,2.54c-4.64.56-9.33.12-14,.19-.56,1.07-1.11,2.14-1.66,3.21,1.46,2.43,1.61,5.12-.4,7.3A5.88,5.88,0,0,1,42,71.13c.56,2.13.24,4.93-2.16,5.75-5.24.74-10.56,0-15.84.12-3.16-.14-6.41.34-9.5-.47-1-1.23-.57-3-.76-4.46,0-6-.22-12,.26-18-1.3-1.39-2.72-2.93-2.43-5-.06-9.69.08-19.37,0-29.06C11.58,18.07,11.39,16.08,12.05,14.25Zm2.74,1.45c0,11.74-.2,23.47.11,35.21A77.94,77.94,0,0,1,23.07,42c2.83-2.69.05-7.72,3.83-9.62,2.34,1,5,2.64,4.81,5.61-.33,4.18-2,8.11-3.09,12.11,9.84.21,19.7.51,29.56.37,0-3,0-6,0-8.94-3.7-.06-7.4.13-11.09,0a3.39,3.39,0,0,1-3.37-3.47c-.11-3.36-.12-6.72,0-10.07A3.47,3.47,0,0,1,46,24.82c4-.43,8.08-.11,12.13-.14,0-3,.06-6,0-9Q36.48,15.56,14.79,15.7Zm32,12.09q-.06,5.28,0,10.55c5,.12,10,.07,15,0-.09-3.49-.12-7,0-10.48C56.83,27.62,51.83,27.8,46.83,27.79Z"/><path class="cls-1" d="M51.21,31.17c2-2.36,6,1.47,3.64,3.58C52.73,37.65,48.37,33.35,51.21,31.17Z"/><path class="cls-1" d="M1.38,55c3-.44,7.5-1.58,9.71,1.11a179.9,179.9,0,0,1,.11,22c-1.91,3-6.29,1.34-9.31,1.75L0,78.24V56.36Z"/></svg>