<svg id="Layer_1" data-name="Layer 1" xmlns="http://www.w3.org/2000/svg" viewBox="0 0 82.15 80"><defs><style>.cls-1{fill:#333;}</style></defs><title>labor-icon-1-80</title><path class="cls-1" d="M39.59,0h2C47.18.48,51.66,6.35,50,11.89c-1.14,5.29-7.47,8.78-12.49,6.54-3-1-4.63-3.9-6.19-6.44a38,38,0,0,0-15,9.57l-2.63-1.48A38.67,38.67,0,0,1,31.07,8.8C32.2,4.58,35.05.77,39.59,0Zm-.11,5.48a4.24,4.24,0,0,0-1.73,6.88c1.91,2.46,6.26,1.52,7.13-1.42C46.36,7.81,42.61,4.19,39.48,5.48Z"/><path class="cls-1" d="M54.09,9.83A40.72,40.72,0,0,1,70.38,23.15c5.4-.55,11,2.75,11.77,8.39v2A9.37,9.37,0,0,1,71.3,42c-5.15-.57-8.85-6-7.93-11,.29-2.75,2.44-4.69,4.1-6.71a35.87,35.87,0,0,0-13.79-11.4C53.78,12.16,54,10.61,54.09,9.83ZM70.3,29.19c-2.33,1.51-2.62,5.38-.24,7,2.25,1.77,6.21.7,6.75-2.27C77.8,30.34,73.32,26.79,70.3,29.19Z"/><path class="cls-1" d="M0,31.59c.64-5.19,5.82-9.31,11-8.33,6.24,1,10.18,9,6.52,14.33C15.74,41,11.8,41.9,8.33,42.53A37.77,37.77,0,0,0,13,60.08l-2.12,2.26c-4-6.17-5.34-13.54-5.45-20.8C3,39.6.75,37.37,0,34.28Zm6.46-2.08a4.48,4.48,0,0,0,.85,7.06c3.17,2.34,7.89-2,6-5.37C12.31,28.55,8.51,27.48,6.46,29.51Z"/><path class="cls-1" d="M23.31,42A17.73,17.73,0,0,1,38,26.09c8.39-1.58,17.35,4.1,19.65,12.3a17.92,17.92,0,0,1-4.14,17.44c-1.27-4.3-3.8-8.24-7.87-10.36,1.52-1.86,3.28-3.9,3.17-6.47.42-5.3-5.58-10-10.58-7.84a8.06,8.06,0,0,0-5,9.88c.53,1.72,1.8,3,2.88,4.4a17.27,17.27,0,0,0-7.92,10.37A18.13,18.13,0,0,1,23.31,42Z"/><path class="cls-1" d="M73.31,46.23,76,45.59a32.21,32.21,0,0,1-6.8,19c1.89,4.65,1.13,10.58-3.51,13.29C60,81.8,51.33,77,51.4,70.16a9.36,9.36,0,0,1,8.66-9.82c2.62-.37,5,.9,7.12,2.25A39.92,39.92,0,0,0,73.31,46.23ZM59.47,65.58a4.38,4.38,0,0,0-2.73,5.53c.93,3.16,5.72,3.76,7.54,1C66.87,69.08,63.18,64.12,59.47,65.58Z"/><path class="cls-1" d="M12.65,66.52c2.48-6,11.25-7.49,15.54-2.62C31,66.58,31,70.65,30.35,74.18,36.08,76,42.12,76,48,75.32c1.53-.42,1.37,1.89,2.11,2.68a40.18,40.18,0,0,1-19.7-.44c-3.44-1.09-5.89,3-9.39,2.36C14.57,80,9.69,72.33,12.65,66.52Zm6.82.11c-2.67,1.21-3.32,5.28-.9,7.05,2.51,2.48,7.37.15,7.09-3.33A4.28,4.28,0,0,0,19.47,66.63Z"/></svg>