<svg id="Layer_1" data-name="Layer 1" xmlns="http://www.w3.org/2000/svg" viewBox="0 0 99 100"><defs><style>.cls-1{fill:#333;}</style></defs><title>region-icon-1-100</title><path class="cls-1" d="M49.09,0h1.47C62,5.12,73.1,10.8,84.43,16.07,89.42,18.75,95,20.43,99.5,24v52.3C83.57,84.81,66.94,92,50.7,100H49.42C38.5,95.06,27.82,89.62,16.94,84.6c-5.46-2.84-11.27-5-16.44-8.34V24.38a8.45,8.45,0,0,1,2.87-2.55C18.63,14.6,33.89,7.37,49.09,0Zm-1,5.64C35,12.3,21.35,18,8.38,25c2.66,1.27,5.35,2.48,8,3.69,7.68-4.05,15.67-7.45,23.38-11.44,1.66-1.16,3.69-.72,5.32.24,5.93,3.1,12.21,5.53,18,8.86,1.64,1,.59,3.12-.81,3.68-6.86,3.56-13.93,6.71-20.93,10a18.87,18.87,0,0,0,9.14,4.51C64.23,38,77.89,31.39,91.61,24.92,79.19,18.49,66.41,12.77,53.84,6.63,52,5.94,50,4.28,48.12,5.64ZM21.81,31.11A131.27,131.27,0,0,0,35.49,37.7c6.92-2.89,13.47-6.65,20.39-9.58-4.15-2.76-8.87-4.5-13.37-6.58l-1,.08C35,24.85,28.33,27.85,21.81,31.11ZM5.19,28.41c.07,15.17-.14,30.34.1,45.51C19.53,80.44,33.5,87.54,47.76,94c0-15,.06-30.08,0-45.11-3.28-1.58-6.54-3.18-9.83-4.75,0,7.63.13,15.26,0,22.89.17,2-2.84,3.37-4,1.53-3.34-4-6.29-8.27-9.31-12.49a44,44,0,0,0-8.2,4.46c-.79-.81-2.33-1.29-2.27-2.65-.16-8.38,0-16.77,0-25.15C11.07,31.32,8.09,29.94,5.19,28.41ZM52.27,49c-.11,15,0,30.08-.06,45.12C66.39,87.47,80.42,80.51,94.64,74c.37-15.17.1-30.36.14-45.54C80.7,35.47,66.27,41.8,52.27,49ZM19,53.85a23.4,23.4,0,0,1,6.69-3.6c2.73,3,4.75,6.61,7.51,9.6-.06-5.87.14-11.76-.09-17.63-4.33-3.08-9.56-4.59-14.18-7.16A184,184,0,0,0,19,53.85Z" transform="translate(-0.5)"/><path class="cls-1" d="M57.73,70.73c4-1.66,7.65-4,11.72-5.47,2.68-1.12,4.12,3.32,1.5,4.19-4.13,2-8.12,4.81-12.81,5.11C58,73.29,57.87,72,57.73,70.73Z" transform="translate(-0.5)"/><path class="cls-1" d="M57.67,80.48c6.89-3.36,13.76-6.79,20.78-9.89,2.26-1.07,3.94,3.14,1.75,4.08-3.44,2-7.2,3.41-10.74,5.23-3.63,1.67-7.06,4-11.12,4.5A32.42,32.42,0,0,1,57.67,80.48Z" transform="translate(-0.5)"/></svg>