<svg id="Layer_1" data-name="Layer 1" xmlns="http://www.w3.org/2000/svg" viewBox="0 0 99.36 100"><defs><style>.cls-1{fill:#333;}</style></defs><title>region-icon-3-100</title><path class="cls-1" d="M63.84-.18h.46C71.86,7,80.21,13.19,88.08,20Q68.81,43,49.55,66c-6.94-5.77-14-11.37-20.67-17.51,4.2,1.36,8.26,3.24,12.66,3.89,5.31.27,8.91-6.86,5.48-10.94-3.4-3.22-7.9-4.91-11.87-7.31C44.61,22.63,54.44,11.4,63.84-.18ZM53.68,23.07c-7.86,1.5-9.41,12.59-3.45,17.19,4.76,4.7,14,3.2,16.16-3.39C69.38,29.36,61.3,20.94,53.68,23.07Z" transform="translate(-0.32 0.18)"/><path class="cls-1" d="M24.45,17.23c6.62-2.26,13.47.45,20.07,1.4-3.28,3.85-6.4,7.87-9.88,11.57-1.9.3-4.62-.6-5.63,1.63a2.73,2.73,0,0,0,1.54,2.92c4.55,2.94,9.66,5,14,8.22,2.65,2.26.07,6.91-3.11,6.55-3.45-.58-6.68-2-10-3-3.45-1.2-7.36-1.84-10-4.64-1.28-1-2.25-2.84-4.09-2.65a74.79,74.79,0,0,0-7.7,1.65c0-6.62,0-13.23,0-19.84C14.7,20.33,19.53,18.6,24.45,17.23Z" transform="translate(-0.32 0.18)"/><path class="cls-1" d="M.32,18.46l6.24,0c0,8.93,0,17.87,0,26.81l-3.64.11C1.93,37,1.41,28.56.32,20.18Z" transform="translate(-0.32 0.18)"/><path class="cls-1" d="M49.85,28.58c1.65-.79,3.38-1.39,5.08-2.07l1.55,2.19c-.8.73-2.43,2.17-3.23,2.9,2.58.13,5-1.92,7.52-1,2,1.45,1.37,4.36,2,6.47s-2,1.38-3.07,1.57l-2,1.24c-.43-.49-1.31-1.47-1.75-1.95,1.44-1.22,3.1-2.33,3.33-4.38-2.51.8-6,3.61-8.12.6C50.78,32.28,51,30.23,49.85,28.58Z" transform="translate(-0.32 0.18)"/><path class="cls-1" d="M27.66,66.2c1.54.25,3.24.13,4.55,1.12,4,2.65,7.79,5.62,11.89,8.14,4.87,3.22,10.95,1.61,16.4,2,2.67-.34,6.28,1,8-1.69C64.19,74,59.38,75.6,54.91,74.5,51.32,73,52.44,66.81,56.53,67a169.87,169.87,0,0,1,24.19.49c4.18.47,7.45,3.7,9.36,7.24,3,5,4.6,10.63,6.94,15.93C90.29,91.73,83.45,92,76.67,92.73c-3,.89-4.3-3-7.06-3.31-7.27-.6-14.6.37-21.86-.58C41.68,88,37.48,83.13,33,79.49,30.5,77,27.21,75.12,25.38,72,24.16,69.72,26.43,67.86,27.66,66.2Z" transform="translate(-0.32 0.18)"/><path class="cls-1" d="M73,96c8.9-.69,17.8-1.61,26.69-2.46v6.23c-9,0-17.9,0-26.85,0C72.87,98.88,73,97,73,96Z" transform="translate(-0.32 0.18)"/></svg>